<svg width="129" height="46" viewBox="0 0 129 46" fill="none" xmlns="http://www.w3.org/2000/svg"><path fill-rule="evenodd" clip-rule="evenodd" d="M83 23c0-12.702 10.298-23 23-23s23 10.298 23 23-10.298 23-23 23-23-10.298-23-23Zm23 21.504c11.877 0 21.504-9.628 21.504-21.504 0-11.876-9.628-21.504-21.504-21.504-11.876 0-21.504 9.628-21.504 21.504 0 11.876 9.627 21.504 21.504 21.504Z" fill="#6F6F6F"/><path fill-rule="evenodd" clip-rule="evenodd" d="M106 10.118V9.37c7.527 0 13.63 6.103 13.63 13.63h-.747c0-7.104-5.78-12.882-12.883-12.882ZM93.118 23c0 7.104 5.78 12.882 12.882 12.882v.748c-7.527 0-13.63-6.103-13.63-13.63h.748Z" fill="#6F6F6F"/><path d="M117.013 13.294c.312.333.762.87 1.014 1.196l4.653-2.933a30.31 30.31 0 0 0-.879-1.084l-2.947 1.934-.201.172.15-.217 1.301-2.579-.92-.914-2.598 1.292-.219.15.174-.2 1.95-2.926c-.343-.29-.673-.555-1.093-.877l-2.954 4.617c.375.286.868.706 1.183.991l2.78-1.433.178-.13-.131.177-1.441 2.764ZM106.454 7.443l1.272-2.828.081-.251-.023.261.133 3.78a19.5 19.5 0 0 1 1.361.178l-.207-5.597c-.635-.07-1.267-.12-1.899-.147l-1.253 3.088-.044.23-.045-.23-1.251-3.088c-.632.027-1.265.077-1.9.147l-.206 5.597a20.31 20.31 0 0 1 1.36-.178l.134-3.78-.023-.261.081.25 1.271 2.829h1.158Z" fill="#6F6F6F"/><path fill-rule="evenodd" clip-rule="evenodd" d="M96.171 11.904c.735-.768 1.151-1.657.416-2.505-.4-.46-1.071-.56-1.628-.334l-.055.022.017-.049c.083-.218.136-.916-.463-1.398a1.392 1.392 0 0 0-1.028-.284c-.69.07-1.221.538-2.667 2.139a34.628 34.628 0 0 0-1.453 1.739l3.971 3.74a104.89 104.89 0 0 1 2.292-2.446l.598-.624Zm-5.181-.915c.8-.971 1.65-1.853 2.035-2.202.121-.11.254-.22.414-.263.261-.07.53.113.59.379.062.267-.107.52-.295.73-.423.473-1.974 2.085-1.974 2.085l-.77-.729Zm3.559-.628c-.494.507-2.004 2.093-2.004 2.093l.805.758 2.003-2.127c.154-.166.34-.382.39-.608a.466.466 0 0 0-.203-.494c-.17-.113-.36-.095-.535-.01-.135.065-.26.187-.456.388Z" fill="#6F6F6F"/><path d="M106 9.37V23H92.37c0-7.532 6.098-13.63 13.63-13.63ZM119.63 23c0 7.532-6.098 13.63-13.63 13.63V23h13.63Z" fill="#0066B1"/><path fill-rule="evenodd" clip-rule="evenodd" d="M14.4 28.826v3.64H0V13h13.956v3.64H3.92v4.105h9.46v3.64H3.92v4.441H14.4Zm7.007-3.201v6.842H17.6V13h3.807v11.644l5.085-5.81h4.72l-5.476 6.223 5.997 7.41h-4.85l-5.476-6.842Zm15.679 7.108v-8.542a6.25 6.25 0 0 1 .745-.457c.309-.166.669-.336 1.08-.51a9.313 9.313 0 0 1 1.388-.47c.48-.122 1.002-.227 1.568-.314V18.6c-.617.087-1.2.205-1.748.353s-.994.309-1.337.483a6.637 6.637 0 0 0-.886.51c-.266.182-.536.37-.81.561V18.94h-3.753v13.793h3.753ZM48.266 13v4h-3.733v-4h3.734Zm0 19.467v-13.6h-3.733v13.6h3.734Zm11.836.194c-.78.226-1.753.339-2.918.339-.429 0-.904-.026-1.427-.078a41.672 41.672 0 0 1-1.543-.183c-.505-.07-.968-.143-1.388-.222-.42-.078-.733-.135-.938-.17v-3.47c.24.052.57.121.99.208.42.087.886.17 1.4.248.515.079 1.059.148 1.633.21.574.06 1.136.09 1.684.09.343 0 .634-.013.874-.039a1.29 1.29 0 0 0 .592-.195c.24-.157.36-.41.36-.757 0-.33-.138-.574-.412-.731a2.208 2.208 0 0 0-.591-.235c-.257-.07-.583-.156-.977-.26l-2.443-.68c-.6-.173-1.08-.356-1.44-.547a3.34 3.34 0 0 1-.95-.757c-.258-.296-.468-.679-.63-1.148-.163-.47-.245-1-.245-1.592 0-.627.095-1.218.283-1.775a3.343 3.343 0 0 1 .951-1.435c.446-.4 1.012-.692 1.697-.875.686-.182 1.577-.274 2.674-.274.411 0 .874.03 1.389.092.514.06 1.02.13 1.516.209.497.078.96.165 1.389.26.428.096.754.17.977.222v3.471c-.257-.07-.596-.152-1.016-.248a50.72 50.72 0 0 0-1.35-.287 25.76 25.76 0 0 0-1.465-.248 9.894 9.894 0 0 0-1.363-.104c-.48 0-.831.022-1.054.065a1.57 1.57 0 0 0-.54.196.555.555 0 0 0-.257.313 1.544 1.544 0 0 0-.051.418c0 .348.154.591.462.73a2.8 2.8 0 0 0 .553.21c.197.051.425.112.682.182l2.34.626c.685.191 1.233.396 1.645.613.411.218.762.474 1.054.77.291.296.523.696.694 1.2.171.505.257 1.036.257 1.593 0 .678-.09 1.257-.27 1.735-.18.479-.493.918-.938 1.318-.48.435-1.11.766-1.89.992Z" fill="#272727"/></svg>