<svg width="151" height="32" viewBox="0 0 151 32" fill="none" xmlns="http://www.w3.org/2000/svg">
    <path fill-rule="evenodd" clip-rule="evenodd" d="M54.289 9.63c0 2.086-1.289 3.775-4.858 3.775h-6.35V.605h6.437c2.958 0 4.41 1.592 4.41 3.414 0 1.117-.465 2.231-1.56 2.77a3.05 3.05 0 0 1 1.92 2.841Zm-7.835-6.274v2.428h2.744a1.2 1.2 0 0 0 1.254-1.242 1.183 1.183 0 0 0-1.254-1.186h-2.744Zm3.011 4.935c.863 0 1.347.467 1.347 1.167l-.01-.008c0 .81-.458 1.204-1.353 1.212h-2.995V8.291h3.011Z" fill="#000"/>
    <path d="m67.72 13.405-.287-8.521a41.747 41.747 0 0 1-.664 2.3l-2.008 6.221H61.5l-2.011-6.22a35.83 35.83 0 0 1-.643-2.267l-.289 8.49H55.3l.53-12.8h4.662l2.645 8.863L65.782.607h4.663l.529 12.801-3.255-.003ZM90.331.605a218.437 218.437 0 0 1-3.479 12.8h-4.106L80.989 5.37l-1.776 8.035h-4.106a239.076 239.076 0 0 1-3.498-12.8h3.64a388.964 388.964 0 0 0 2.027 8.503l1.81-8.49h3.784l1.812 8.503c.717-2.839 1.416-5.77 2.027-8.49l3.622-.026ZM54.969 31.395l-.286-8.521a41.923 41.923 0 0 1-.664 2.303l-2.008 6.218h-3.263l-2.008-6.218c-.265-.756-.447-1.51-.646-2.266l-.285 8.49h-3.247l.53-12.799h4.659l2.646 8.861 2.645-8.86h4.639L58.21 31.4l-3.241-.005Z" fill="#000"/>
    <path fill-rule="evenodd" clip-rule="evenodd" d="M66.211 18.308c-3.675 0-7.083 2.608-7.083 6.688s3.405 6.688 7.08 6.688c3.675 0 7.084-2.608 7.084-6.688s-3.406-6.688-7.081-6.688Zm-.012 3.093a3.608 3.608 0 0 1 3.616 3.595 3.623 3.623 0 0 1-1.05 2.566 3.604 3.604 0 0 1-2.554 1.066 3.609 3.609 0 0 1-3.604-3.607A3.609 3.609 0 0 1 66.2 21.4Z" fill="#000"/>
    <path d="M84.14 21.489h-3.705v9.903h-3.413V21.49h-3.704v-2.892H84.14v2.892Z" fill="#000"/>
    <path fill-rule="evenodd" clip-rule="evenodd" d="M91.26 18.305c-3.68 0-7.083 2.61-7.083 6.691 0 4.08 3.408 6.686 7.083 6.686 3.675 0 7.08-2.608 7.08-6.688s-3.4-6.689-7.08-6.689Zm-.012 3.096a3.609 3.609 0 0 1 3.616 3.595 3.624 3.624 0 0 1-1.05 2.566 3.604 3.604 0 0 1-2.554 1.066 3.608 3.608 0 0 1-3.604-3.607 3.609 3.609 0 0 1 3.592-3.62ZM110.676 31.395v-.072a26.566 26.566 0 0 0-1.075-2.589 17.921 17.921 0 0 0-1.399-2.409 3.998 3.998 0 0 0 1.918-3.523c0-2.067-1.344-4.205-4.948-4.205h-5.593v12.798h3.405v-3.918h2.135c.396.584.75 1.197 1.059 1.833.316.68.596 1.376.841 2.085h3.657Zm-5.522-6.723h-2.17v-3.27h2.17a1.635 1.635 0 0 1 1.566 1.635c0 .878-.691 1.6-1.566 1.635ZM123.066 31.395v-.072a26.375 26.375 0 0 0-1.082-2.576 17.625 17.625 0 0 0-1.397-2.409 4.003 4.003 0 0 0 1.918-3.523c0-2.08-1.338-4.218-4.945-4.218h-5.593v12.798h3.408v-3.918h2.132c.398.584.751 1.197 1.059 1.833.317.68.598 1.376.841 2.085h3.659Zm-5.522-6.723h-2.169v-3.27h2.169a1.635 1.635 0 0 1 1.567 1.635c0 .878-.691 1.6-1.567 1.635ZM128.02 28.917h4.762c.217.825.431 1.653.633 2.478h3.439a77.936 77.936 0 0 0-4.125-12.798h-4.625a79.597 79.597 0 0 0-4.141 12.8h3.429c.174-.73.364-1.463.554-2.196l.074-.284Zm2.378-7.741c.521 1.342 1.059 2.995 1.561 4.775h-3.148c.529-1.79 1.058-3.449 1.587-4.775ZM142.781 31.395c4.482 0 7.242-2.786 7.242-6.399s-2.77-6.399-7.253-6.399h-4.857v12.798h4.868Zm0-9.848c1.971 0 3.765 1.13 3.765 3.45h-.01c0 2.328-1.805 3.45-3.766 3.448h-1.452v-6.898h1.463ZM0 16C0 7.163 7.144 0 15.957 0c4.233 0 8.291 1.686 11.284 4.686 2.993 3 4.674 7.07 4.674 11.314 0 8.837-7.145 16-15.958 16S0 24.837 0 16Zm15.957 14.96c8.24 0 14.92-6.698 14.92-14.96.001-3.968-1.57-7.773-4.369-10.58a14.897 14.897 0 0 0-10.55-4.38c-8.24 0-14.92 6.698-14.92 14.96s6.68 14.96 14.92 14.96Z" fill="#000"/>
    <path fill-rule="evenodd" clip-rule="evenodd" d="M15.958 7.044v-.531a9.45 9.45 0 0 1 6.702 2.778 9.5 9.5 0 0 1 2.773 6.72h-.53c-.005-4.951-4.008-8.963-8.945-8.967ZM7.015 16c.004 4.95 4.005 8.964 8.943 8.97v.52a9.45 9.45 0 0 1-6.699-2.776A9.5 9.5 0 0 1 6.485 16h.53Z" fill="#000"/>
    <path d="M23.692 9.214c.216.233.529.607.703.835l3.234-2.056c-.162-.212-.418-.53-.612-.758L24.972 8.59l-.14.122.103-.154.905-1.806-.64-.65-1.802.907-.154.103.122-.14 1.355-2.05a18.84 18.84 0 0 0-.76-.616L21.908 7.55c.265.202.604.496.82.695l1.932-1.003.124-.092-.09.124-1.002 1.94ZM16.36 5.11l.883-1.982.056-.178-.016.186.092 2.653c.31.032.63.074.945.124l-.143-3.929a20.175 20.175 0 0 0-1.323-.103l-.868 2.165-.031.161-.03-.161-.867-2.165c-.44.018-.879.056-1.323.103l-.143 3.924c.315-.05.635-.093.944-.125l.093-2.653-.016-.185.058.177.881 1.982.807.006Z" fill="#000"/>
    <path fill-rule="evenodd" clip-rule="evenodd" d="M9.218 8.238c.511-.531.794-1.162.289-1.757a.985.985 0 0 0-1.13-.233l-.04.013V6.23a.938.938 0 0 0-.322-.981.956.956 0 0 0-.715-.2c-.479.048-.85.377-1.852 1.5l-.175.212c-.272.329-.605.732-.82 1.008l2.757 2.624a72.74 72.74 0 0 1 1.563-1.685c.137-.145.283-.297.445-.47ZM5.62 7.596c.44-.543.911-1.059 1.413-1.544a.725.725 0 0 1 .288-.184.338.338 0 0 1 .41.266.616.616 0 0 1-.203.512c-.294.331-1.37 1.462-1.37 1.462l-.538-.512Zm2.471-.44C7.758 7.51 6.7 8.621 6.7 8.621l.563.533 1.392-1.493a1.03 1.03 0 0 0 .264-.425.327.327 0 0 0-.14-.347.356.356 0 0 0-.37 0c-.12.07-.227.16-.318.265Z" fill="#000"/>
    <path d="M15.957 6.513V16H6.496c-.001-2.516.996-4.93 2.77-6.71a9.446 9.446 0 0 1 6.691-2.777ZM25.422 16a9.497 9.497 0 0 1-2.77 6.712 9.446 9.446 0 0 1-6.695 2.778V16h9.465Z" fill="#0066B1"/>
</svg>
